<?xml version="1.0" encoding="UTF-8"?>
<svg xmlns="http://www.w3.org/2000/svg" viewBox="0 0 318.38 303.07">
    <path d="M94.89,193.88c-.72-1.32-1.42-2.65-2.17-3.95C65.83,143.24,38.91,96.56,12.04,49.86,2.91,33.98,6.25,16.09,20.06,6.14c15.44-11.12,36.5-6.76,46.41,9.97,10.81,18.25,21.24,36.74,31.84,55.11.82,1.41,1.69,2.79,2.66,4.37,9.13-19.71,30.7-26.06,48.99-14.43,3.7-11.37,10.87-19.5,22.52-22.7,11.45-3.15,21.75-.31,30.01,6.76,3.94-4.52,7.16-9.62,11.65-13.09,14.31-11.05,34.48-6.47,43.91,9.7,14.27,24.48,28.53,48.97,42.38,73.69,5.09,9.08,10.12,18.47,13.28,28.33,14.05,43.88-4.58,92.65-44.01,116.35-16.49,9.91-33.14,19.58-49.95,28.93-33.88,18.83-67.92,18.54-101.54-.63-35.49-20.24-70.77-40.85-106.11-61.34-12.67-7.35-15.67-20.21-7.72-32.51,13.68-21.17,39.85-28.06,62.01-16.09,9.42,5.08,18.59,10.63,27.87,15.96.21-.21.42-.43.63-.64Z"/>
</svg>