<?xml version="1.0" encoding="UTF-8"?>
<svg xmlns="http://www.w3.org/2000/svg" viewBox="0 0 778.45 947.3">
    <path d="M232.56,588.18c0-3.43,0-6.85,0-10.28,0-127.92-.1-255.84.06-383.76.06-46.73,35.94-82.39,81.28-81.43,41.36.87,76.31,34.34,77.04,75.79.92,52.49.33,105,.39,157.51,0,3.39,0,6.78,0,11.1,53.01-33.12,95.1-20.79,127.96,28.83,46.47-42.16,115.26-24.42,134.19,33.3,12.68-4.95,25.04-11.99,38.24-14.5,44.2-8.4,85.67,25.67,86,70.67.56,76.68,1.39,153.4-.28,230.06-2.51,115.44-95.82,219.98-210.33,237.7-15.93,2.47-32.2,3.6-48.33,3.8-43.19.51-86.38.35-129.57.14-100.3-.5-176.06-44.12-226.51-130.95-51.24-88.18-101.94-176.68-152.83-265.06-19.69-34.19-9.52-66.03,26.23-82.56,57.44-26.55,120.6-6.79,152.5,47.85,14.06,24.09,27.87,48.32,41.8,72.49.71-.23,1.42-.46,2.13-.68Z"/>
    <path d="M94.44,205.78c-11.46-8.77-23.36-16.35-33.44-25.87-35.9-33.9-35.77-78.09.02-112.03,24.11-22.87,53.89-35.58,85.08-45.01C212.5,2.8,280.51-2.74,349.52,1.17c49.65,2.82,98.43,10.23,145.35,27.39,25.51,9.33,49.65,21.23,69.36,40.54,33.62,32.92,33.99,75.48.87,108.85-22.3,22.47-50.34,35.02-79.62,45.18-9.87,3.43-19.97,6.3-30.12,8.81-15.77,3.91-30.31-4.84-34.72-20.39-4.11-14.5,4.23-29.26,19.33-34.57,19.11-6.71,38.51-12.79,57.12-20.72,9.71-4.14,18.7-10.85,26.74-17.87,11.63-10.15,11.88-19-.37-28.51-11.9-9.23-25.07-17.51-38.85-23.5-37.92-16.48-78.31-23.41-119.24-26.89-59.51-5.06-118.65-2.44-177.01,11.13-26.03,6.05-51.45,14.09-74.26,28.55-6.1,3.87-11.85,8.62-16.83,13.86-7.64,8.05-8.1,13.98-.55,21.64,7.59,7.71,16.71,13.91,25.15,20.77.67-.63,1.34-1.25,2.01-1.88-1.49-4.04-3.12-8.04-4.45-12.13-4.72-14.49,2.15-29.96,15.75-35.71,13.82-5.84,30.2-.49,36.39,13.5,11.04,24.97,21.45,50.24,31.2,75.75,5.4,14.13-1.96,28.79-16.64,35.11-23.01,9.9-46.16,19.49-69.42,28.8-15.77,6.31-31.23.46-37.97-13.64-6.57-13.73-1.46-28.83,12.71-37.62,1.07-.67,2.15-1.33,2.98-1.85Z"/>
</svg>